<svg version="1.1" id="Layer_1" xmlns="http://www.w3.org/2000/svg" xmlns:xlink="http://www.w3.org/1999/xlink" x="0px" y="0px" viewBox="0 0 1024 1024" xml:space="preserve" height="px" width="px">
<g>
	<path d="M370.16,662.82c-21.18-4.22-40.93-8.15-62.15-12.37c5.24-2.59,9.22-4.61,13.24-6.54c26.5-12.73,53.13-25.19,79.44-38.28
		c9.89-4.92,19.36-2.99,29.12-0.91c8.7,1.86,8.47,1.94,7.2-6.5c-0.91-6.1-0.81-12.27,1.6-18.67c-6.28,0-12.2,0.3-18.1-0.06
		c-16.05-0.96-29.71-7.71-41.53-18.26c-5.07-4.52-7.08-10.77-7.27-17.49c-1.02-36.28-1.98-72.56-2.97-108.84
		c-0.28-10.15-0.75-20.3-0.8-30.45c-0.08-15.54,6.06-27.27,21.05-33.51c5.82-2.42,11.35-5.55,17.19-7.94
		c3.29-1.35,3.97-2.68,2.79-6.23c-5.82-17.49-10.03-35.32-12.61-53.65c-8.69-61.81,22.31-120.62,78.76-146.53
		c74.38-34.13,166.21-6.32,204.57,73.64c6.65,13.86,9.67,28.67,10.51,43.79c1.75,31.42-3.1,61.95-14.55,91.31
		c-9.39,24.08-25.28,43.17-46.02,58.31c-2.92,2.13-2.78,2.88-0.11,5.1c9.05,7.53,18.97,13.85,28.3,20.92
		c6.32,4.79,14.59,5.67,19.96,11.67c0.33,0.37,1.31,0.43,1.87,0.27c8.67-2.5,17.09,1.32,25.67,1.03c2.11-0.07,4.41,1.03,4.92,2.84
		c1.2,4.24,5.42,4.01,7.71,6.08c8.76,7.94,17.82,2.64,26.55,1.45c62.31-8.55,122.6-2.92,179.95,24.56
		c6.45,3.09,12.51,6.86,18.52,10.76c4.53,2.94,5.72,6.65,4.74,11.92c-7.17,38.71-25.47,72.06-49.44,102.59
		c-36.04,45.88-81.61,80.27-132.28,108.32c-10.97,6.08-22.31,11.5-33.97,17.48c8.74,5.04,13.5,12.35,14.22,21.9
		c1.31,17.41-9.5,28.85-27.36,29.74c-17.65,0.88-32.48-5.58-45.46-16.94c-2.37-2.08-4.46-2.89-7.49-1.98
		c-6.39,1.92-12.52,0.88-18.23-2.43c-2.77-1.6-5.34-1.85-8.5-0.92c-5.87,1.74-11.88,3.05-17.9,4.17c-2.55,0.47-3.37,1.48-3.24,3.92
		c0.29,5.35,0.17,10.8,5.95,13.8c0.68,0.35,1.41,1.14,1.59,1.85c2.73,10.83,12.56,14.38,20.48,19.75c5.1,3.46,10.4,6.52,14.54,11.22
		c8.11,9.22,9.08,19.61,5.1,30.74c-3.88,10.83-12.12,16.54-23.19,17.79c-26.69,2.99-46.56-8.65-61.82-29.69
		c-1.95-2.69-3.83-5.44-5.85-8.08c-1.95-2.55-3.59-6.03-7.83-2.97c-0.53,0.38-1.97-0.1-2.78-0.56
		c-9.67-5.45-18.36-12.06-24.57-21.45c-6.27-9.49-6.47-19.18-0.1-29.13c-4,0.43-7.44,0.8-10.88,1.17c-2.01,0.22-3.14,1.51-4.24,3.09
		c-5.86,8.47-11.83,16.88-17.75,25.31c-3.96,5.64-9.25,9.46-15.75,11.68c-29.5,10.05-59,20.11-88.51,30.16
		c-0.6,0.21-1.26,0.27-2.15,0.12c14.66-11.33,22.48-27.86,34.13-43.4c-10.99,3.76-20.63,6.99-30.22,10.37
		c-8.92,3.15-17.77,6.48-26.68,9.68c-1.77,0.64-3.93,2.37-5.44,0.48c-1.42-1.78,0.84-3.26,1.82-4.69
		c7.19-10.55,14.41-21.06,21.95-32.07c-29.11,8.58-57.66,16.99-86.21,25.43c-28.56,8.44-57.12,16.92-85.88,24.85
		c0.82-1.67,2.29-1.94,3.73-2.41c51.97-17.06,104.58-32.05,156.94-47.85c4.28-1.29,8.47-2.9,12.72-4.28c2.03-0.66,3.3-2,4.45-3.73
		c5.81-8.71,11.64-17.41,17.61-26.02c1.67-2.41,1.75-3.37-1.44-4.28c-3.2-0.92-6.09-3.12-7.84-5.91c-1.46-2.33-5.5-2.52-4.98-6.54
		c0.14-1.05-1.71-0.94-2.83-0.16c-2.02,1.41-4.33,2.16-7.12,2.85c1.28-2.44,3.67-2.29,5.3-3.35c1.49-0.96,3.25-1.89,2.05-3.76
		c-1.07-1.67-2.87-0.95-4.41-0.02c-1.88,1.13-3.53,3.16-6.29,1.87c1.83-1.67,4.05-2.26,6.24-2.97c1.71-0.55,2.36-1.97,1.56-3.56
		c-0.84-1.69-2.02-0.76-3.33-0.25c-2.94,1.13-5.58,3.44-9.49,2.78c2.18-2.44,5.18-2.02,7.38-3.36c1.76-1.07,4.45-1.67,2.84-4.65
		c-1.58-2.94-3,0.03-4.42,0.38c-2.79,0.69-5.09,2.91-8.96,3.06c2.82-2.88,6.09-3.07,8.71-4.54c1.76-0.99,3.4-2.11,2.21-4.19
		c-1.04-1.82-2.56-0.22-3.82,0.27c-3.14,1.21-6.15,2.86-10.62,3.37c3.35-3.18,7-3.19,9.95-4.67c1.71-0.85,3.58-1.6,2.7-3.95
		c-1-2.68-2.82-1.18-4.44-0.59c-3.32,1.2-6.66,2.32-10.12,3.09c2.74-2.69,6.52-3.01,9.71-4.65c1.69-0.87,3.69-1.33,2.67-3.8
		c-1.07-2.56-2.79-0.39-4.21-0.35c-1.27,0.04-2.29,1.58-3.73,0.64c6.42-3.87,6.42-3.87,4.71-11.62c-1.22-5.54-1.86-11.14-1.8-16.82
		c0.1-9.43,3.89-17,11.99-22.79c-10.13-2.93-19.24-4.62-29.48-0.9c-28.75,10.45-56.05,24.24-84.48,35.37
		c-3.81,1.49-7.67,2.86-11.84,3.51C303.74,691.59,335.21,675.07,370.16,662.82z M464.78,442.67c3.31,2.68,6.8,5.11,10.69,6.9
		c0.38,1.33,1.66,1.58,2.66,1.96c30.93,11.96,62.79,16.92,95.62,10.77c12.65-2.37,25.17-6.27,35.3-15.14
		c2.8-2.45,5.22-5.14,6.07-8.89c0.35-1.53,0.3-3.22-0.95-4.15c-1.01-0.75-2.04,0.61-3.04,1.06c-2.11,0.95-4.17,2.01-6.35,3.07
		c2.45,4.76,0.61,8.51-3.13,11.74c-2.67,2.31-5.78,3.91-9.01,5.2c-13.03,5.18-26.53,8.22-40.61,8.38
		c-5.46,0.06-10.92,0.01-16.37,0.01c5.91-1.68,11.83-2.3,17.71-3.15c1.11-0.16,2.99-0.16,3.06-1.87c0.05-1.27-0.72-2.59-1.89-3.32
		c-0.85-0.52-1.91-0.72-2.95-1.09c1.54-1.8,3.7-2.75,4.08-4.67c-35.92,1.65-70.9-0.43-100.93-23.85c-1.33-1.33-2.22-3.19-5.04-4.13
		C451.76,431.31,456.95,437.9,464.78,442.67z M430.6,667.17c-0.35-2.12,0.64-3.9,1.58-5.64c4.99-9.29,12.22-16.04,22.52-19.35
		c-1.06-2.01-1.39-4.48-4.59-2.73C438.1,645.99,431,656,428.6,669.4c-1.3,2.15-1.63,4.58-1.94,7.01
		c-2.45,19.33,6.03,35.84,13.12,52.88c23.54-11.41,46.7-22.3,73.96-24.34c-3.98-2.79-7.27-2.75-10.46-2.4
		c-9.76,1.1-19.34,2.95-28.34,7.2c-9.9,4.68-19.91,9.13-29.89,13.63c-1.54,0.69-3.2,2.29-4.54-0.44c-2.03-4.13-4.06-8.24-4.42-12.95
		c1.6,2.69,2.99,5.47,4.24,8.31c0.91,2.08,2.28,2.76,4.35,1.81c10.11-4.63,20.4-8.89,30.23-14.05c5.85-3.07,8.99-8.84,7.43-15.57
		c-3.18-13.7-10.04-25.34-21.82-33.43c-9.14-6.27-19.14-4.38-26.02,4.37C433.09,663.26,431.9,665.26,430.6,667.17z M446.46,404.6
		c0.69,1.81,2.29,2.84,3.68,3.96c43.73,35.35,91.92,45.66,145.34,25.47c13.68-5.17,25.9-12.93,36.86-22.65
		c-6.17,2.81-12.22,5.77-18.5,8.27c-24.93,9.91-50.75,11.07-77.03,8.07c-27.08-3.09-52.15-11.46-73.68-28.65
		c-9.87-7.88-18.31-16.96-19.93-30.46c-1.52-12.69-2.78-25.45-5.08-38.01c-2.4-13.08,0.31-24.59,7.52-35.48
		c9.91-14.97,22.98-26.69,37.63-36.72c33.8-23.15,71.15-37.05,111.88-41.27c18.08-1.87,36.21-1.32,53.9,3.86
		c7.71,2.26,14.95,5.63,22.55,10.11c-29.95-57.88-90.02-89.05-154.57-78.28c-65.27,10.89-111.96,65.77-112.23,131.82
		c-0.11,27.02,5.17,53.09,14.57,78.34c3.4,9.14,6.95,18.26,13.39,25.85C437.07,394.31,440.95,400.16,446.46,404.6z M611.98,681.14
		c5.76,6.19,11.53,12.46,15.21,20c3.22,6.59,7.87,8.79,14.72,8.44c13.87-0.71,27.21-4.05,40.49-7.72
		c44.37-12.25,84.28-33.87,122.77-58.49c3.4-2.18,3.09-3.25,0.86-6.16c-32.79-42.67-45.37-90.14-33.38-143.24
		c0.73-3.21-0.11-3.25-2.69-2.98c-12.89,1.37-25.7,3.22-38.43,5.63c-27.09,5.11-53.9,11.26-79.11,22.88
		c-25.72,11.86-48.47,27.64-66.35,49.95c-2.22,2.78-3.15,4.26,0.97,6.44c4.75,2.52,9.82,4.59,13.94,8.52
		c1.92,1.84,5.92,2.26,8.67-0.38c5-4.79,11.25-6.87,17.76-8.48c4.18-1.03,8.39-1.93,12.13-4.3c9.33-5.9,19.74-7.07,30.26-5.41
		c18.41,2.9,30.03,14.22,35.51,31.64c5.73,18.23,5,35.77-9.68,49.95c-12.41,11.98-27.5,16.97-44.8,14.22
		c-4.02-0.64-7.76-1.81-11.31,2.04c-2.35,2.56-6.13,2.91-9.81,2.06c-7.77-1.79-13.61-6.68-19.46-11.62
		c-1.37-1.15-2.45-2.87-4.56-2.72c-7.05,0.5-11.52-3.39-15.05-8.84c-0.76-1.18-1.56-2.43-3.09-1.91c-3.11,1.07-6.65,0.14-9.79,2.16
		c8.12,8.73,15.31,18.06,22.13,27.68c6.93,9.77,13.01,20.04,18.04,30.93c2.6,5.64,4.5,11.35,4.66,17.66
		c0.15,5.95,3.12,9.44,8.72,11.4c5,1.75,9.84,0.79,14.67-0.62c45.9-13.37,88.46-34.2,129.57-58.23
		c12.34-7.21,24.48-14.74,36.14-23.03c0.92-0.65,2.9-0.82,1.54-2.76c-1.05-1.49-2.28-1.82-3.74-0.52c-0.37,0.33-0.82,0.56-1.23,0.84
		c-29.38,19.58-60.06,36.85-92.13,51.63c-24.15,11.13-48.7,21.23-74.56,27.71c-9.81,2.46-16.37-2.27-18.08-12.41
		c-0.85-5.08-2.16-10.02-3.9-14.88C617.49,692.34,614.57,686.84,611.98,681.14z M930.11,527.95c-0.25,1.58-0.21,1.94-0.36,2.18
		c-1.01,1.53-2.02,3.05-3.09,4.53c-24.65,33.91-54.3,62.91-87.12,88.82c-1.27,1.01-4.58,1.67-2.43,4.26
		c1.94,2.33,3.52-0.26,4.95-1.37c21.18-16.24,40.87-34.12,58.72-53.96c13.36-14.85,25.99-30.3,36.17-47.56
		c5.04-8.54,4.92-8.81-3.47-13.73c-37.22-21.8-78.07-30.59-120.56-33.59c-4.32-0.3-6.69,1.26-8.36,5.33
		c7.12,0.33,13.94,0.42,20.72,1.01c6.61,0.58,13.18,1.56,19.74,2.55c6.71,1.01,13.44,2.02,20.07,3.45
		c6.45,1.4,12.85,3.14,19.16,5.09c6.25,1.94,12.59,3.8,18.23,7.32c-0.74,0.21-1.39,0.17-1.99-0.03
		c-28.59-9.79-58.11-13.49-88.2-13.37c-13.45,0.06-14.15,0.67-17,14.06c-4.29,20.18-1.95,40.02,3.73,59.56
		c6.23,21.44,15.75,41.2,30.67,58.1c1.91,2.16,3.16,2.8,5.9,0.71c15.51-11.79,30.49-24.19,44.62-37.61
		C898.13,566.72,914.54,548.41,930.11,527.95z M610.45,736.56c-2.26-0.56-3.41,0.18-4.67,0.55c-15,4.43-30.2,6.27-45.74,3.39
		c-1.28-0.24-3.69,0.25-3.19-1.94c0.46-1.98,2.47-0.6,3.83-0.52c14.97,0.97,29.52-0.79,43.37-6.88c1.99-0.87,3.9-1.97,5.12-3.85
		c0.89-1.37,2.19-3.04,1-4.53c-1.05-1.32-2.71-0.19-4.12,0.25c-6.64,2.13-13.33,4.06-20.36,4.27c-1.32,0.04-3.6,0.9-3.8-0.94
		c-0.27-2.46,2.26-1.72,3.74-1.96c7.67-1.25,15.16-2.98,22.49-8.37c-5.48,1.03-9.84,1.91-14.21,2.65c-2.11,0.36-5.21,2.16-6.08-0.56
		c-0.92-2.86,2.78-2.6,4.53-3.32c10.84-4.47,14.51-11.52,10.89-22.57c-1.75-5.33-4.56-10.31-6.68-15.53
		c-1.1-2.69-2.51-3.05-5.33-2.44c-10.36,2.23-18.38,7.98-25.33,15.65c5.26-10.45,13.43-17.35,24.81-19.94
		c-5.36-9.71-12.67-14.1-23.64-9.86c3.51-3.55,7.9-3.37,12.5-4.03c-4.53-5.31-9.99-1.43-15.38-2.11c3.21-3.02,7.15-2.05,9.92-3.88
		c-2.97-4.8-6.57-6.39-12.24-5.07c-5.57,1.3-11.43,1.84-17.33,1.07c-8.74-1.14-14.4-7.01-20.64-12.24
		c-12.18-10.21-26.83-8.85-36.51,3.11c-0.18-9.37,6.13-15.67,18.87-18.09c-9.59-3.19-16.29-9.52-23.71-14.75
		c-8.42-5.94-17.01-11.6-26.59-15.57c-2.62-1.09-4.64-1.26-3.93,2.72c3.31,18.57,7.8,36.7,19.06,52.38
		c1.52,2.12,2.87,4.36,4.29,6.55c-7.14-5.97-12.28-13.28-15.58-21.75c-4.11-10.51-7.49-21.25-9.4-32.42
		c-1.02-5.95-2.64-11.97,5.61-14.59c-7.27-4.53-9.71-3.6-11.9,3.96c-0.85,2.92-0.97,5.98-0.55,8.91
		c3.03,20.89,11.19,39.76,25.26,55.34c13.25,14.68,27.78,28.23,42.01,42c4.1,3.97,7.9,8.49,13.41,11.1
		c1.67-6.17,3.64-11.98,6.38-17.48c0.57-1.15,0.78-3.48,2.85-2.58c1.83,0.8,0.18,2.34-0.09,3.45c-0.79,3.21-2.1,6.31-2.68,9.55
		c-0.74,4.13-2.79,8.16-1.85,13.39c2.63-4.71,4.75-8.63,7.03-12.46c0.51-0.87,1.15-2.43,2.59-1.67c1.52,0.8,0.39,2.08-0.02,3.04
		c-1.42,3.36-2.98,6.65-4.42,9.99c-0.46,1.06-0.97,2.42,0.27,3.14c1.29,0.75,2.54,0.24,3.4-1.1c1.69-2.63,3.43-5.22,5.15-7.83
		c-1.8,6.03-1.32,12.76-5.96,17.76c-1.06,1.14-1.9,2.41-3.64,1.91c-1.72-0.5-2.13-1.88-1.98-3.54c0.06-0.65,0.8-1.66-0.76-1.8
		c-1.68,1.74-2.13,3.62-0.7,5.76c3.28,4.9,7.68,2.39,12.09,1.54c-5.35,4.74-2.04,9.52-0.12,14.73c-4.86-3.83-4.86-3.89-5.26-9.54
		c-0.06-0.86,0.88-2.74-1.42-2.08c-1.15,0.33-2.99,0.21-2.6,2.23c0.31,1.61,0.66,3.31,1.46,4.71c15.58,27.17,38.07,33.06,66.63,20.6
		c4.43-1.93,7.98-5.23,10.13-10.31c-4.8,0.11-8.73,2.05-12.91,2.71c-4.16,0.66-8.3,2.54-13.94,0.41
		C593.62,744.13,602.91,743.14,610.45,736.56z M377.61,420.71c-0.31-0.02-0.62-0.04-0.93-0.05c0,1.63-0.03,3.25,0,4.88
		c0.44,19.8,0.48,39.62,1.44,59.39c0.96,19.79-0.3,39.62,1.57,59.37c0.53,5.57,2.93,10.05,7.5,13.44
		c5.79,4.29,12.23,7.29,18.91,9.81c14.21,5.35,19.66,1.52,19.34-13.57c-0.91-43.42-1.19-86.86-3.06-130.24
		c-0.82-19.14-7.78-36.34-27.63-44.95c6.15,0.79,11.6-1.82,17.28-3.29c2.34-0.6,3.26-1.61,2.06-4.25c-1.03-2.25-1.78-3.25-4.35-1.95
		c-5.19,2.61-10.52,4.94-15.78,7.39c-7.58,3.54-14.08,8.04-16.57,16.75c-2.16,7.56-1.8,15.13-0.77,22.74
		c0.3,2.22,2.05,3.48,4.22,3.58c2.8,0.12,3.81,1.43,3.77,5.05c-1.39-2.26-2.7-3.8-4.29-2.71c-0.87,0.6-0.8,2.57-1.36,4.71
		C378.39,424.2,378,422.45,377.61,420.71z M471.26,794.89c6.12-4.14,10.16-10.03,14.33-15.83c13.68-19.04,24.44-39.95,37.94-59.1
		c0.77-1.09,0.55-1.94,0.32-3.16c-1-5.4-3.91-7.52-9.35-6.37c-2.59,0.55-5.27,0.71-7.92,0.92c-20.59,1.61-39.4,8.74-57.34,18.52
		c-1.62,0.88-3.1,1.81-3.54,3.88c-1.07,4.98-3.9,9.13-6.66,13.26c-11.16,16.73-22.38,33.41-33.59,50.1
		c-5.86,8.73-11.74,17.44-18.35,27.25c18.67-6.88,35.88-13.75,53.45-19.57c19.78-6.54,35.52-17.55,45.54-36.19
		c2.49-4.63,5.86-8.8,8.83-13.17C487.55,768.94,480.73,782.73,471.26,794.89z M470.97,562.37c-1.67-2.77-0.87-4.56-0.12-6.34
		c0.47-1.12,1.06-1.93-0.69-2.67c-2.94-1.24-4.3-4.06-5.67-6.71c-6.83-13.13-11.94-26.97-16.45-41.02
		c-0.49-1.53-2.47-4.43-0.22-5.15c2.29-0.73,2.24,2.65,2.99,4.32c2.59,5.83,4.65,11.93,8.58,17.1c-0.87-4.6-2.12-9.03-3.4-13.45
		c-0.24-0.85-0.37-1.82,0.44-2.25c1.12-0.59,1.84,0.26,2.27,1.23c0.4,0.9,0.73,1.84,1.06,2.77c3.95,11.24,8.82,22.13,12.29,33.57
		c1.92,6.33,4.24,6.99,10.43,4.91c15.55-5.21,31.03-10.7,47.33-13.21c2.86-0.44,3.61-1.61,2.66-4.22
		c-4.58-12.47-11.73-22.67-24.57-27.86c-1.77-0.72-3.49-1.56-5.24-2.35c8.31-0.53,15.57,2.76,23.74,6.59
		c-6.02-11.47-12.67-20.65-24.21-24.85c-11.11-4.04-22.2-3.47-34.07,2.18c6.2-7.95,13.91-9.21,21.67-10.35
		c-16.03-3.05-27.79,2.88-35.63,17.33c0.77-7.67,4.36-13.82,8.31-19.91c-7.57,4.15-12.97,10.2-16.16,19.62
		c-1.73-6.86,1.9-10.99,3.6-16.88c-7.1,7.3-9.94,15.05-10.03,23.53c-0.11,11.3,0.58,22.62,0.93,33.93c0.1,3.25,0.97,6.31,3.13,8.75
		C451.34,549.38,459.63,556.72,470.97,562.37z M567.34,425.45c-11.69-0.47-23.19-2.08-34.5-4.86c-26.21-6.46-50-17.64-69.99-36.19
		c-5.46-5.06-7.95-11.31-8.12-18.61c-0.26-11.34-1.78-22.48-5.08-33.36c-2.32-7.65-1.57-15,1.77-22.27
		c4.94-10.76,12.98-18.97,22-26.08c38.29-30.19,81.57-48.75,130.43-51.63c30.85-1.82,59.66,4.45,79.44,32.31
		c-0.8-13.97-5.51-25.54-17.79-33.07c-14.9-9.13-31.44-12.46-48.55-12.75c-51.62-0.87-97.52,15.97-138.72,46.31
		c-14.3,10.53-26.84,22.89-34.77,39.2c-2.81,5.78-4.48,11.77-3.56,18.3c1.64,11.67,3.43,23.32,4.74,35.02
		c1.5,13.38,4.84,25.75,15.68,34.91c5.09,4.3,10.3,8.42,15.99,11.88c20.53,12.5,43.06,18.84,66.79,20.95
		C551.12,426.23,559.26,427.26,567.34,425.45z M552.31,579.09c-1.91,3.28-4,6.47-5.68,9.86c-1.76,3.56-3.43,7.22-4.61,11
		c-3.73,11.93,0.05,18.23,12,21.58c10.4,2.92,20.76,1.42,31.19,0.82c3.6-0.21,4.82-1.59,4.95-5.07c0.33-8.3,1.01-16.67,4.23-24.39
		c1.72-4.13,0.06-5.12-3.25-6.22c-6.68-2.21-13.53-3.66-20.57-4.67c1.14-3.58,4.74-1.51,6.65-3.92c-2.65-1.35-5.14-2.54-7.56-3.87
		c-2.47-1.36-4.92-2.78-7.29-4.29c-8.99-5.73-8.98-5.75-17.48,0.81c-0.13,0.1-0.25,0.22-0.39,0.31
		c-7.51,5.47-14.12,11.93-20.66,18.56c3.86-9.38,11.5-15.73,18.25-22.89c-4.3,1.94-8.2,4.35-12.21,6.57c-0.82,0.46-2,1.95-2.98,0.47
		c-0.84-1.27,0.5-2.12,1.39-2.78c3.61-2.65,7.33-5.14,10.88-7.87c1.56-1.19,4.03-1.73,4.08-4.64c-5.31-0.74-9.78,2.5-14.8,2.52
		c3.92-1.82,7.92-3.35,11.94-4.84c3.28-1.21,3.19-2.75,0.71-4.89c-1.62-1.4-3.25-1.22-5.12-0.9c-16.2,2.78-31.76,7.99-47.6,12.15
		c-3.66,0.96-4.45,3.01-3.66,6.1c2,7.87,4.02,15.82,7.7,23.03c2.18,4.28,6.09,7.25,7.22,12.7c0.93,4.54,6.67,5.97,11.25,7.15
		c8.45,2.18,16.36,5.3,22.86,11.45c2.54,2.4,5.86,3.7,9.29,4.58c12.45,3.21,25.05,2.55,37.64,1.32c2.93-0.29,6.26,0.29,9.09-1.96
		c-1.91-1.29-3.6-0.68-5.2-0.54c-14.6,1.32-29.16,2.37-43.33-2.84c-2.18-0.8-5-1.07-6.04-3.13c-2.99-5.96-9-6.75-14.19-8.88
		c-3.66-1.5-7.6-2.28-11.32-3.65c-6.35-2.34-8.16-8.09-4.11-13.53c3.4-4.57,7.97-7.72,13.71-9.79c-0.68,2.03-2.26,2.35-3.38,3.17
		c-5.78,4.28-5.77,6.95,0.6,10.51c4.18,2.34,8.77,3.93,13.08,6.06c2.69,1.33,3.88,1.29,5.42-1.97
		C539.18,593.47,544.29,585.14,552.31,579.09z M622.5,842.61c-1.72-4.24-0.65-6.62,0.57-8.71c1.2-2.05,0.76-2.57-1.05-4.11
		c-4.66-3.96-9.56-7.82-12.78-13.2c-0.91-1.52-1.83-2.81-3.9-2.05c-2.92,1.06-5.54,0.45-6.59-2.52c-1.2-3.39,1.3-5.32,3.98-6.52
		c3.48-1.55,7.09-2.79,10.7-4.01c1.14-0.39,2.3-0.39,2.13-2.06c-0.17-1.64-1.06-2.34-2.65-2.29c-0.67,0.02-1.33,0.07-2,0.08
		c-22.6,0.35-44.39-2.6-63.74-15.59c-0.18-0.12-0.59,0.11-0.91,0.18c-1.42,12.97,3.15,23.39,13.31,31.45
		c1.16,0.92,2.92,1.96,1.65,3.53c-1.44,1.77-2.58-0.24-3.64-1.08c-3.66-2.91-7.27-5.87-10.9-8.81c4.87,6.87,11.71,11.87,18.67,17.79
		c-0.16-3.62,0.08-5.92,3.46-3.06c1.01,0.86,2.11,1.62,3.14,2.46c6.64,5.45,13.25,10.93,16.31,19.35c2.3-1.24-0.57-3.35,2.05-4.16
		c5.05,5.92,11.03,11.15,18.89,12.75c5.84,1.19,10.25,2.76,10.4,9.6c0,0.12,0.47,0.22,0.93,0.42c0-0.93-0.15-1.78,0.03-2.56
		c0.47-2.1-1.45-5.86,1.1-5.99c2.7-0.13,1.31,3.75,1.85,5.85c0.64,2.52-0.13,5.68,3.33,7.97c-0.87-4.19-2.55-7.29-1.85-12.59
		c3.76,6.79,8.18,11.01,14.48,12.26c6.59,1.31,12.52-0.19,17.21-5.43c6.89-7.69,6.16-19.23-1.94-27.41
		c-3.17-3.2-6.61-6.52-11.42-6.45C633.73,827.85,626.94,832.82,622.5,842.61z M559.68,536.82c0.32-0.05,0.64-0.11,0.96-0.16
		c0-9.45-0.41-18.93,0.12-28.35c0.47-8.22-0.31-15.12-9.71-17.62c-0.28-0.07-0.49-0.39-0.98-0.79c4.88-0.34,9,5.41,14.18,1.14
		c-2.21-0.92-4.33,0.81-6.33-0.94c23.15-5.86,44.09-17.88,68.14-23.07c-1.16,2.81-2.9,3.08-4.35,3.71
		c-17.63,7.72-35.22,15.51-52.93,23.02c-3.15,1.34-4.07,3.01-4.13,6.27c-0.14,7.68,0.31,15.32,1.12,22.92
		c0.43,4.05,0.35,8.52,3.76,12.21c0.4-0.88,0.8-1.33,0.73-1.69c-1.98-10.41-1.37-20.88-0.87-31.35c0.34-6.94,1.69-8.25,9.59-8.99
		c-5.71,1.87-5.76,6.27-5.47,10.99c0.38,6.19,1.9,12.07,3.87,17.93c1.56,4.65,3.84,5.26,8.19,3.31c11.29-5.06,22.75-9.73,34.17-14.5
		c3.34-1.39,7.87-1.71,9.8-4.14c1.46-1.84-0.46-6.26-0.69-9.55c-0.15-2.15,0-4.33,0.06-6.49c0.19-6.99,0.45-13.97,0.58-20.96
		c0.02-1.28,0.76-3.32-1.86-3.11c-2.83,0.22-5.15-1.27-7.46-2.46c-3.58-1.85-6.57-1.51-10.27,0.24
		c-15.82,7.45-32.28,13.3-49.04,18.37c7.98-3.43,15.96-6.86,23.95-10.29c-0.93-0.65-1.57-0.57-2.16-0.35
		c-12.84,4.84-25.65,9.76-38.53,14.47c-1.61,0.59-1.51,1.47-1.51,2.57c-0.02,13.28-0.01,26.57-0.01,39.85
		c0.36,0,0.71,0.01,1.07,0.01c0-7.78,0-15.56,0-23.33c2.03,3.31,2.88,6.77,4.01,10.15c1.04,3.13,1.74,6.41,3.59,9.23
		c0.75,1.14,1.63,2.39,3.07,2.24c1.93-0.2,1.33-2.05,1.42-3.21c0.33-3.98,0.58-7.97,0.63-11.96c0.09-7.27,2.48-15.69-8.73-18
		c2.65,0.45,4.62,1.48,6.7,2.22c3.05,1.09,4.3,2.95,4.34,6.32c0.11,8.48,0.66,16.96,0.98,25.44
		C559.77,531.01,559.68,533.92,559.68,536.82z M625.95,619.95c2.98-1.08,4.62-0.2,6.32,0.43c4.51,1.67,9.1,3.08,13.88,3.73
		c3.76,0.51,6.91-0.57,9.15-3.75c0.65-0.92,1.62-1.89,0.91-3.14c-0.6-1.06-1.78-0.64-2.7-0.6c-5.63,0.23-10.81-1.5-15.86-3.65
		c-1.55-0.66-4.37-1.47-3.65-3.29c0.92-2.35,3.16-0.18,4.62,0.34c3.76,1.35,7.54,2.59,11.51,3c1.97,0.2,4.3,0.3,5.15-1.98
		c0.9-2.42-1.08-3.56-2.87-4.56c-0.87-0.48-1.75-0.94-2.67-1.31c-7.77-3.08-14.71-7.65-21.72-12.09c-1.29-0.82-3.67-1.31-3.21-3.26
		c0.37-1.54,2.53-1.13,3.98-1.36c4.83-0.79,9.4-2.23,12.89-5.91c1.13-1.2,2.28-2.46,1.03-4.37c-1.13-1.72-2.47-1.82-4.29-1.3
		c-4.3,1.23-8.65,2.3-12.99,3.41c-9.06,2.3-15.67,6.21-16.98,17.07c-1.33,11.08-3.21,22-2.09,33.21c0.22,2.21,0.51,4.35,1.98,6.03
		c5.47,6.24,12.14,10.87,19.94,13.64c4.02,1.43,6.44,0.51,8.29-2.16c-13.77-2.99-22.41-7.9-23.46-13.4
		c2.16,0.11,3.55,1.68,5.21,2.67c5.92,3.51,12.15,6.09,19.08,6.61c3.35,0.25,6.33-0.31,7.67-4.03c-1.46-0.98-3.08-1.18-4.7-1.54
		c-4.38-0.97-8.55-2.56-12.5-4.71c-0.96-0.52-1.79-1.24-1.3-2.32c0.66-1.44,1.66-0.29,2.48-0.01c2.82,0.94,5.57,2.22,8.46,2.81
		c3.17,0.65,6.42,2.06,9.73,0.29c1.69-0.9,3.27-2.01,3.09-4.09c-0.17-1.96-2.08-1.8-3.49-2.12c-1.29-0.29-2.61-0.48-3.88-0.85
		C637.22,625.71,631.18,624.68,625.95,619.95z M648.07,656.48c20.71,5.64,42.03-3.13,51.4-20.66c9.54-17.85,5.1-43.24-9.92-56.72
		c-11.62-10.43-33.35-13.33-44.5-5.84c2.54,1.54,6.97-2.12,8.08,2.98c0.95,4.4-5.18,4.31-5.01,8.17c1.13,0.37,2.15-0.32,3.27-0.58
		c12.18-2.85,23.51-1.72,32.7,7.75c9.07,9.33,10.85,25.74,4.41,38.12c-6.56,12.61-18.09,18.62-32.17,16.45
		c-2.06-0.32-2.97-0.15-3.73,1.75c-0.83,2.08-1.92,4.06-2.99,6.29c3.23,0.44,6.21,0.62,10.06,2.28
		C655.01,656.48,651.54,656.48,648.07,656.48z M615.55,248.56c-8.9-0.13-12.43,4.12-10.83,11.75c0.27,1.29,0.71,2.57,1.27,3.76
		c7.2,15.46,19.3,26.02,34.47,32.95c8.83,4.03,14.48-0.97,12.53-10.56c-2.95-14.46-11.42-25.1-23.72-32.9
		C624.72,250.69,619.92,248.55,615.55,248.56z M689.06,780.37c-0.01,0.32-0.02,0.64-0.03,0.96c2.6,0.99,5.12,2.35,7.8,2.89
		c7.65,1.55,15.41,2.48,23.22,1.82c4.28-0.36,8.51-1.3,12.26-3.71c5.77-3.71,8.49-10.34,6.81-16.84c-1.62-6.26-7.5-11.51-13.3-11.87
		c-6.1-0.38-11.73,3.54-14.25,10.43c-1.12,3.08-1.46,6.44-2.14,9.68c-0.19,0.92,0.08,2.27-1.28,2.29c-1.53,0.02-1.7-1.31-1.72-2.51
		c-0.03-2.36-0.01-4.73-0.01-7.64c-5.08,3.4-10.23,4.95-15.95,6.69c3.23,2.73,6.37,3.81,9.3,5.27c1,0.5,2.41,0.86,2.03,2.38
		c-0.38,1.52-1.86,1.24-2.93,1.16C695.59,781.12,692.33,780.71,689.06,780.37z M615.69,749.21c-2.14,2.04-3.57,3.61-5.2,4.93
		c-12.44,10.1-43.93,17.06-62.43,3.26c-0.94-0.7-1.9-2.24-3.36-1.28c-1.21,0.79-1.17,2.29-1.21,3.64
		c-0.16,4.88,2.63,8.01,6.21,10.74c19.43,14.78,47.36,6.22,58.56-4.63C612.67,761.61,615.08,756.24,615.69,749.21z M406.56,673.26
		c-7.55,1.18-13.13,6.95-13.93,14.56c-0.84,8.04,0.3,15.91,3.74,23.3c2.03,4.37,7.25,7.61,11.05,7.12
		c4.76-0.62,9.63-5.41,10.61-10.38c-4.19,3.25-7.08,9.48-14.14,6.5c-3.84-1.62-6.07-5.92-5.75-10.55
		c5.65,5.14,10.77,4.56,15.18-1.95c3.77-5.56,5.33-12.08,7.61-18.29c0.95-2.58,0.22-3.5-2.06-4.41c-5.45-2.17-11.86-0.49-16.65,4.68
		c-1.36,1.47-2.61,3.06-4.45,5.24C399.14,682.21,400.88,679.12,406.56,673.26z M438.39,541.45c-4.47,10.32,0.22,17.34,7.37,23.52
		c1.38,1.2,2.72,2.44,4.12,3.62c10.35,8.79,21.73,15.92,34.71,21.88c-1.92-5.55-3.56-10.36-5.26-15.14c-0.63-1.77-1.8-3.11-3.53-4
		C461.33,563.88,448.8,553.97,438.39,541.45z M482.53,551.48c-3.05,1.08-4.72,2.47-3.37,5.66c1.2,2.85,3.01,4.28,6.21,3.23
		c16.33-5.31,32.86-9.93,49.46-14.33c1.38-0.37,4.38,0.31,3.64-2.73c-0.53-2.21-1.5-4.56-4.4-4.72c-1.65-0.09-3.35-0.14-4.96,0.15
		c-13.05,2.32-25.81,5.65-38.14,10.59c-3.02,1.21-4.9,2.71-4.61,6.11c0.11,1.34-0.16,2.42-1.7,2.4c-1.46-0.01-2.38-0.91-2.91-2.29
		C481.17,554.11,482.92,553.28,482.53,551.48z M677.26,499.09c2.25,0.72,3.29,0.2,4.41-0.11c29.63-8.07,59.63-14.11,90.4-15.48
		c3.98-0.18,5.52-2.09,6.26-6.01C743.59,479.46,710.2,486.01,677.26,499.09z M547.3,477.87c-11.99-0.61-23.83-2.49-36.78-5.09
		c12.75,11.42,22.77,23.43,26.74,39.48c0.24-6.63,0.82-13.17,0.09-19.56c-0.83-7.26,1.14-11.82,8.66-13.22
		C546.63,479.37,547.25,479.01,547.3,477.87z M578.01,834.29c-0.39,0.37-0.78,0.75-1.17,1.12c4.55,7.06,9.24,14.06,15.04,20.17
		c14.36,15.16,31.82,22.34,52.85,19.64c5.99-0.77,9.64-3.01,12.15-6.95c-6.99,2.81-13.95,4.32-21.42,3.38
		c-18.16-2.28-32.8-10.98-45.13-24.07C586.18,843.19,582.11,838.72,578.01,834.29z M593.5,618.03c0.09,5.63-0.49,9.99,1.6,14.04
		c1.04,2.02,2.55,2.88,4.87,2.49c2.16-0.37,2.76-1.74,2.46-3.59c-1.95-11.88,0.26-23.46,2.57-35.02c0.38-1.89,0.09-3.27-1.45-4.33
		c-3.59-2.48-5.16-0.07-6.26,2.8C594.22,602.45,593.77,610.9,593.5,618.03z M595.32,437.21c-0.51,0.1-1.03,0.11-1.48,0.31
		c-9.09,4.04-18.92,5.81-28.21,9.2c-2.69,0.98-4.83,2.82-6.09,5.55c-1.79,3.9,0.49,7.42,4.8,7.37c1.75-0.02,3.21-0.78,4.6-1.67
		c6.16-3.93,13.05-5.48,20.18-6.31c3.32-0.39,6.53-1.26,9.38-3.01c2.56-1.57,5.21-3.56,4.38-7.02
		C601.97,437.85,598.41,437.72,595.32,437.21z M460.91,455.23c-5.5-5.46-11.07-10.55-16.75-17.63c-0.92,13.13-1.75,24.93-2.58,36.73
		C447.27,467,452.05,459.44,460.91,455.23z M588.85,533c-13.89,7.48-27,15.88-39.28,25.78c4.16,0.45,7.49,2.2,10.67,4.2
		c1.85,1.16,3.08,1.51,4.32-0.79C570.71,550.83,579.09,541.33,588.85,533z M442.93,618.35c-0.33-2.97-1.43-4.5-4.2-5.01
		c-6.51-1.19-13.03-2.4-19.43-4.03c-4.85-1.23-9.19-0.31-13.47,1.78c-11.94,5.8-23.86,11.63-35.79,17.43
		c-4.93,2.4-9.89,4.76-15.66,7.53c2.87,0.52,4.19-0.66,5.66-1.27c14.86-6.15,29.58-12.64,44.01-19.75
		c3.99-1.96,7.84-2.84,12.43-1.77C425.11,615.29,433.91,616.65,442.93,618.35z M639.18,823.06c-6.55-4.47-11.66-8.44-15.61-13.54
		c-1.78-2.3-3.23-2.25-5.3-0.91c-1.24,0.81-2.48,1.66-3.82,2.26c-3.06,1.37-2.67,2.96-0.92,5.32c3.46,4.67,7.87,7.68,13.64,8.41
		c-0.72,2.2-3.12,1.07-4.73,3.53C628.87,828.04,632.86,824.05,639.18,823.06z M662.52,475.36c1.15-0.02,2.96,0.64,4.02-1.23
		c1.74-3.08,4.32-5.43,6.79-7.87c0.89-0.87,1.44-1.54,0.42-2.9c-4.65-6.18-17.52-5.12-20.93,1.83c-0.27,0.54-0.36,1.28-0.27,1.88
		C653.28,471.55,657.56,475.24,662.52,475.36z M536.14,745.05c-3.25,9.32,0.61,20.37,9.48,27.39c13.4,10.6,28.91,11.69,44.9,9.2
		c9.54-1.48,12.14-3.03,16.3-7.01c-12.27,5.21-24.07,6.44-36.05,5.63c-10.39-0.7-19.81-4.12-27.07-11.95
		c-2.89-3.12-5.78-7.83-2.48-11.04c3.99-3.87,1.33-5.04-0.82-7.27C538.92,748.47,537.61,746.78,536.14,745.05z M661.48,331.66
		c0.09-4.4-0.58-7.79-2.32-10.87c-1.11-1.97-2.79-3.33-5.26-2.96c-2.33,0.35-3.1,2.13-3.65,4.16c-0.89,3.28-0.88,6.53-0.04,9.8
		c1.02,3.97,1.64,9.55,6.53,9.13C661.71,340.48,661.19,334.86,661.48,331.66z M695.95,466.75c-12.6-4.07-19.3-1.87-24.04,8.11
		c3.17,0,6.47-0.66,9.39,0.13C688.86,477.04,693.58,474.48,695.95,466.75z M569.7,830.07c-12.26-7.01-22.87-15.5-29.58-29.64
		c-1.13,5.79,0.63,9.29,2.73,12.59c4.53,7.11,10.86,12.46,17.51,17.51C563.46,832.87,566.23,834.31,569.7,830.07z M737.73,785.57
		c-7.83,4.5-15.16,4.87-22.64,4.97c-7.41,0.1-14.71-0.88-23.22-2.56C703.31,797.48,730.78,797.28,737.73,785.57z M592.69,315.47
		c8.71,1.64,10.44,7.8,10.39,15.37c1.39-7.22,2.01-14.77,12.07-15.62c-11.45,0.81-10.06-8.29-12.17-15.2
		C601.61,312.4,600.55,313.93,592.69,315.47z M539.68,532.86c-0.55,0.35-1.2,0.59-1.57,1.05c-0.52,0.66,0.07,1.27,0.53,1.67
		c1.82,1.57,2.81,3.53,3.34,5.88c1.89,8.44,6.97,9.2,13.08,3.96c1.57-1.35,2.28-2.1-0.32-3.27c-4.75-2.13-9.96-3.66-13.25-8.22
		C541.15,533.45,540.4,533.27,539.68,532.86z M658.52,455.57c-8.57-6.68-9.9-6.52-15.23,0.63c-1.41,1.89-1.06,3.26,0.57,3.98
		c1.94,0.86,3.11,5.01,5.84,2.32C652.31,459.92,655.62,458.37,658.52,455.57z M632.48,445.78c-0.04,3.57,3.9,9.42,5.42,8.43
		c2.85-1.86,5.18-4.57,7.47-7.16c0.6-0.68-8.04-7.63-9.59-7.26C632.39,440.59,633.23,443.88,632.48,445.78z M699.6,479.83
		c3.43-0.61,5.16-4.15,7.02-7.62c1.01-1.89,0.89-3.58-0.79-4.83c-1.73-1.29-3.76-1.38-5.46,0.08c-2.13,1.84-3.72,4.15-5.01,6.66
		C693.43,477.86,694.41,479.65,699.6,479.83z M419.85,664.96c2.82-0.66,5.61-1.11,6.72-3.49c4.98-10.71,13.12-19.05,20.54-27.94
		c1.04-1.25,2.34-2.4,0.66-4.8C438.36,640.94,429.1,652.95,419.85,664.96z M548.01,389.14c1.96-4.43,2.18-9.33,8.06-10.1
		c-6.18-0.36-6.09-5.71-8.2-9.49c0.47,5.86-2.4,8.8-7.98,9.53C546.24,380.18,547.04,381.14,548.01,389.14z M649.51,498.54
		c-0.04-0.32-0.07-0.63-0.11-0.95c-2.79,0-5.59-0.12-8.36,0.06c-1.16,0.07-2.72-1.51-3.35,0.15c-0.48,1.25-0.46,3.24,0.26,4.26
		c1.04,1.5,2.64,0.07,3.93-0.43C644.44,500.66,646.96,499.58,649.51,498.54z M719.37,477.07c-1.68-1.98-3.76-2.19-5.51-3.05
		c-1.52-0.74-2.6-0.18-3.2,1.24c-0.51,1.19-1.48,2.79-1.07,3.64c0.73,1.51,2.27,0.2,3.48-0.04
		C715.14,478.46,717.37,478.64,719.37,477.07z M556.06,327.02c-2.37-1.25-3.97-2.67-3.94-5.49c-0.72,2.63-1.96,4.58-4.85,5.49
		c3.73,0.3,3.64,3.44,5.07,6.24C552.52,330.11,552.79,327.74,556.06,327.02z M620.8,803.95c-4.27-2.4-9.74,0.01-13.19,5.57
		C612.21,807.58,616.31,805.85,620.8,803.95z M551.89,271.83c-1.38,0.42-2.41,1.36-2.26,3.15c0.14,1.68,0.94,2.97,2.83,2.7
		c1.79-0.26,2.39-1.65,2.26-3.32C554.59,272.81,553.72,271.95,551.89,271.83z M467.17,304.08c-0.3,1.69-1.27,2.76-2.66,3.44
		c0.67,1.35,2.74,1.76,2.52,3.72c0.9-1.43,1.9-2.77,3.43-3.61C469.46,306.55,468.46,305.47,467.17,304.08z" fill="#d4b8fa"></path>
	<path d="M316.87,696.02c-78.74,41.34-159.12,79.25-240.91,114.14C83.81,804.53,311.36,696.68,316.87,696.02z" fill="#d4b8fa"></path>
	<path d="M158.22,856.2c67.24-27.58,137.28-46.87,206.13-69.69C296.93,813.55,226.6,832,158.22,856.2z" fill="#d4b8fa"></path>
	<path d="M241.9,794.55c-51.37,25.13-106.88,38.97-159.1,61.59c0.99-3.24,3.7-3.79,5.96-4.84c32.23-14.96,65.84-26.33,99.33-37.99
		C206.02,807.06,223.96,800.8,241.9,794.55z" fill="#d4b8fa"></path>
	<path d="M190.69,789.02c41.68-19,82.56-39.93,125.86-55.3C275.93,755.14,233.14,771.66,190.69,789.02z" fill="#d4b8fa"></path>
	<path d="M282.23,742.7c-8.27,4.52-16.64,8.7-26.08,10.13c-2.52,0.38-5.44,1.01-6.74-1.61c-1.42-2.86,1.66-4.26,3.21-6.06
		c0.83-0.97,2.45-1.07,2.83-2.58c-32.88,9.89-65.18,21.29-96.48,35.53c-0.18-0.49-0.36-0.98-0.54-1.46
		c12.31-5.11,24.63-10.22,36.94-15.33c11.02-4.58,22.3-8.29,33.88-11.28c11.41-2.95,21.78-8.83,32.76-13.03
		c1.98-0.76,3.87-1.96,7.4-1.45c-6.43,4.59-12.8,8.01-17.36,14.63C263.5,751.42,272.44,745.29,282.23,742.7z" fill="#d4b8fa"></path>
	<path d="M302.58,790.72c-18.62,5.69-37.24,11.41-55.88,17.05c-2.68,0.81-5.19,0.92-6.73-2.32c-1.17-2.47-3.09-0.82-4.66-0.3
		c-12.42,4.11-24.83,8.23-37.23,12.39c-1.27,0.43-2.48,0.92-3.86,0.56c4.72-3.16,54.32-21.5,61.55-22.58
		c-3.55,1.87-6.48,3.27-9.24,4.94c-1.57,0.95-3.2,2.53-2.44,4.48c0.91,2.34,3.07,1.15,4.74,0.75c16.6-3.98,32.48-10.38,48.97-14.7
		c1.54-0.4,3.08-0.84,4.62-1.26C302.47,790.07,302.52,790.4,302.58,790.72z" fill="#d4b8fa"></path>
	<path d="M248.29,722.99c16.67-9.5,34.01-17.48,51.89-24.3C283.23,707.54,266.14,716.1,248.29,722.99z" fill="#d4b8fa"></path>
	<path d="M316.04,765.49c7.76-5.05,16.05-8.43,25.37-10.34C338.28,759.59,323.57,765.69,316.04,765.49z" fill="#d4b8fa"></path>
	<path d="M253.16,768.13c-5.12,2.11-10.25,4.23-15.37,6.34c-0.13-0.32-0.26-0.64-0.39-0.96c5.14-2.08,10.27-4.17,15.41-6.25
		C252.92,767.55,253.04,767.84,253.16,768.13z" fill="#d4b8fa"></path>
	<path d="M197.73,791.48c4.47-3.29,9.38-5.53,14.89-6.34C207.66,787.25,202.7,789.37,197.73,791.48z" fill="#d4b8fa"></path>
	<path d="M351.41,784.76c4.23-2.43,8.76-4.05,13.49-5.13C360.73,782.22,356.13,783.66,351.41,784.76z" fill="#d4b8fa"></path>
	<path d="M432.76,388.84c-4.27-9.3-9.06-18.39-11.77-28.33c-0.95-3.48-2.5-6.86-2.1-12.06c1.67,4.75,2.86,8.23,4.11,11.68
		c7.12,19.64,19.02,35.4,36.4,47.36c19.31,13.29,39.5,24.39,62.56,29.51c6.31,1.4,12.66,2.65,19.18,2.76c1.94,0.03,4-0.24,6.62,1.53
		c-10.49,0.64-20-0.46-29.44-2.2c-25.73-4.74-48.04-16.73-68.49-32.6c-1.02-0.79-1.87-1.96-3.38-1.9
		C440.95,400.16,437.07,394.31,432.76,388.84z" fill="#d4b8fa"></path>
	<path d="M454.66,427.6c9.81,12.48,23.56,19.13,37.47,26c-2.7-0.6-5.4-1.17-8.09-1.82c-2.87-0.69-5.71-1.47-8.57-2.21
		c-3.89-1.79-7.38-4.21-10.69-6.9c-1.2-1.32-2.4-2.64-3.61-3.96C458.21,435.48,454.88,432.45,454.66,427.6z" fill="#d4b8fa"></path>
	<path d="M412.63,318.57c-12.08-53.5,6-114.09,60.94-145.51c52.19-29.86,117.07-20.29,154.29,11.83c-3.62-0.76-5.8-2.86-8.27-4.26
		c-24.37-13.82-50.6-18.2-78.27-15.99c-26.46,2.12-51.23,9.57-73.59,23.89C427.95,214,410.1,251.02,411.5,297.79
		C411.7,304.72,412.24,311.64,412.63,318.57z" fill="#d4b8fa"></path>
	<path d="M483.88,626.63c-2.35,10.37-1.77,19.77,1.78,28.97C479.74,647.66,478.79,634.17,483.88,626.63z" fill="#d4b8fa"></path>
	<path d="M380.21,459c0.85,20.27,1.73,40.53,2.54,60.8c0.31,7.63,0.51,15.26,1.83,22.81c1.08,6.16,4.45,10.6,9.86,13.57
		c4.37,2.39,8.85,4.46,13.73,5.68c8.32,2.09,11.81-0.31,11.61-8.75c-0.84-35.09-1.83-70.17-2.75-105.26
		c-0.08-2.98-0.01-5.96-0.01-9.03c1.98,1.62,1.57,3.88,1.73,5.96c1.02,13.45,0.8,26.94,0.96,40.41c0.27,22.96,0.62,45.91,0.9,68.87
		c0.1,8.44-3.14,11.17-11.38,9.49c-6.71-1.37-12.92-4.15-18.61-7.89c-6.08-3.99-8.37-10.39-8.66-17.19
		C380.85,512.05,379.53,485.63,380.21,459z" fill="#d4b8fa"></path>
	<path d="M381.03,397.17c1.32-12.08,11.65-17.71,21.21-10.89c11.39,8.12,16.28,20.1,17.23,33.83c0.03,0.48-0.11,1-0.29,1.45
		c-0.17,0.44-0.49,0.82-1.01,1.63c-1.37-5.74-2.21-11.21-4.43-16.3c-2.94-6.72-7.07-12.45-13.66-15.92
		C392.42,386.94,387.98,388.5,381.03,397.17z" fill="#d4b8fa"></path>
	<path d="M393.78,548.67c-3.77-3.15-3.75-7.74-4.8-12.28c8,0.78,15.72,1.53,23.44,2.28c1.81,0.18,2.6,1.56,2.93,3
		c0.85,3.72,1.55,7.48,1.38,11.35c-0.09,2.05-1.06,3.4-2.96,3.19c-7.36-0.84-14.95-1.23-20.17-7.72c5.43,2.86,11.25,4.5,17.27,5.56
		c1.58,0.28,2.98,0.44,3.76-1.31c2.19-4.88-1.33-10.73-6.72-11.3c-2.46-0.26-4.92-0.64-7.37-1.02
		C390.05,538.8,390.05,538.79,393.78,548.67z" fill="#d4b8fa"></path>
	<path d="M456.23,792.74c-17.5,9.34-36.49,14.79-55.22,21.69c0.64-2.23,0.73-1.92,2.46-2.41c3.32-0.94,6.54-2.22,9.77-3.45
		C427.52,803.15,442.21,798.85,456.23,792.74z" fill="#d4b8fa"></path>
	<path d="M472.39,529.02c1.72,3.36,3.55,6.67,5.14,10.09c1.61,3.47,3.41,6.47,8.43,5.5c-4.73,3.62-6.88,3.44-8.84-0.87
		c-2.09-4.62-3.72-9.44-5.56-14.18C471.84,529.38,472.11,529.2,472.39,529.02z" fill="#d4b8fa"></path>
	<path d="M497.63,563.79c-1.73,2.33-6.84,1.46-4.11,6.48c3.84,7.07,6.32,9.28,11.37,7.36c3.69-1.41,7.16-3.4,10.75-5.07
		c1.29-0.6,2.98-1.97,4.01-0.4c1.16,1.77-1.03,2.34-2.11,3.22c-1.77,1.43-4.1,2.23-5.18,4.51c1.69,1.61,3.4-1.42,5.01,0.13
		c0.42,1.25-0.51,1.9-1.29,2.37c-4.74,2.81-9.07,6.14-13.03,9.94c-2.99,2.86-5.57,1.89-7.18-1.15c-3.73-7.08-5.66-14.82-7.07-22.64
		C488.28,565.66,490.54,564.57,497.63,563.79z" fill="#d4b8fa"></path>
	<path d="M634.56,836.31c-3.92,2.75-6.74,5.48-8.08,9.46C625.64,840.96,628.14,838.02,634.56,836.31z" fill="#d4b8fa"></path>
	<path d="M583.56,514.53c-0.82-3.23,1.03-4.77,4.26-6.13c9.45-3.99,18.74-8.37,28.08-12.64c2.86-1.31,4.31-1.64,5,2.6
		c0.89,5.46,0,8.47-5.6,10.56c-8.35,3.11-16.3,7.27-24.49,10.8C584.2,522.58,583.69,522.16,583.56,514.53z" fill="#d4b8fa"></path>
	<path d="M616.08,481.38c0.44,3.09,0.69,5.56,1.16,7.98c0.47,2.41-1.1,3.27-2.81,4.04c-8.75,3.94-17.47,7.95-26.31,11.7
		c-1.54,0.65-4.36,3.43-5.17-0.19c-0.66-2.94-3.05-7.14,1.49-9.27C594.75,490.81,605.19,486.26,616.08,481.38z" fill="#d4b8fa"></path>
	<path d="M601.26,481.71c6.23-2.56,12.45-5.14,18.7-7.65c0.88-0.35,1.88-0.38,2.96-0.14C616.35,478.06,608.94,480.03,601.26,481.71z
		"></path>
	<path d="M695.13,638.94c-2.22,4.23-5.61,7.28-9.3,10.08c-2.3,1.74-4.05,1.84-5.63-0.97c-1.74-3.08,0.16-4.86,2.27-6.15
		c2.46-1.5,4.04-0.25,4.51,2.5c0.05,0.27,0.35,0.51,0.65,0.91C690.53,643.61,692.45,640.84,695.13,638.94z" fill="#d4b8fa"></path>
	<path d="M684.43,583.13c-0.13,1.11,0.1,2.67-1.38,2.13c-2.46-0.89-4.98-2.27-6.05-4.67c-0.55-1.23,1.22-3.06,2.71-2.81
		C682.55,578.27,684.12,580.37,684.43,583.13z" fill="#d4b8fa"></path>
	<path d="M694.31,621.37c-0.15-2.7,1.08-4.32,3.6-4.43c2.54-0.11,3.94,1.5,3.98,3.98c0.04,2.41-1.19,4.23-3.74,4.18
		C695.91,625.05,693.93,624.15,694.31,621.37z M697.81,623.41c1.72-0.01,2.54-0.88,2.57-2.45c0.03-1.3-0.56-2.26-1.95-2.4
		c-1.59-0.16-2.54,0.73-2.74,2.21C695.48,622.34,696.32,623.25,697.81,623.41z" fill="#d4b8fa"></path>
	<path d="M662.69,575.02c0.11-1.98,1.23-2.73,2.92-2.67c1.42,0.05,2.87,0.75,2.64,2.26c-0.22,1.46-0.72,3.49-2.87,3.35
		C663.73,577.85,662.9,576.55,662.69,575.02z" fill="#d4b8fa"></path>
	<path d="M668.38,653.57c-0.16,1.4-1.56,1.97-3.43,1.88c-2.35-0.11-1.85-2.36-1.93-3.41c-0.17-2.19,2.08-1.66,3.39-1.82
		C668.24,649.98,668.52,651.36,668.38,653.57z" fill="#d4b8fa"></path>
	<path d="M695.61,601.77c-2-0.14-2.88-1.43-3.16-3.18c-0.31-1.93,1.14-2.07,2.48-2.14c2.05-0.11,3.04,1.31,3.25,2.97
		C698.37,600.98,696.99,601.55,695.61,601.77z" fill="#d4b8fa"></path>
	<path d="M598.63,443.82c-0.07,2.2-1.79,1.87-2.94,2.09c-6.48,1.24-12.9,2.72-19.22,4.65c-3.82,1.16-7.6,2.29-10.49,5.25
		c-0.67,0.69-1.42,1.68-2.45,0.65c-0.87-0.86-0.23-1.91,0.16-2.77c1.08-2.4,3.08-3.99,5.47-4.76c7.69-2.5,15.41-4.94,23.2-7.09
		C594.57,441.23,597.4,440.78,598.63,443.82z" fill="#d4b8fa"></path>
</g>
</svg>